<?xml version="1.0" encoding="UTF-8" standalone="no"?>
<!DOCTYPE svg PUBLIC "-//W3C//DTD SVG 1.1//EN" "http://www.w3.org/Graphics/SVG/1.1/DTD/svg11.dtd">
<svg width="100%" height="100%" viewBox="0 0 1486 1506" version="1.1" xmlns="http://www.w3.org/2000/svg" xmlns:xlink="http://www.w3.org/1999/xlink" xml:space="preserve" xmlns:serif="http://www.serif.com/" style="fill-rule:evenodd;clip-rule:evenodd;stroke-linejoin:round;stroke-miterlimit:2;">
    <g transform="matrix(1,0,0,1,-7497.08,-581.927)">
        <g transform="matrix(1,0,0,1,5358.13,-250.583)">
            <path d="M2138.95,2337.96L2138.95,1214.8L2518.45,1214.8L2518.45,832.509L3043.7,840.511C3278.13,835.542 3616.64,1104.19 3623.89,1468.44C3630.33,1791.55 3447.31,2114.3 3051.7,2150.96L2518.45,2150.96L2518.45,1968.02L3054.37,1967.85C3250.27,1929.88 3425.87,1758.24 3436.98,1483.17C3429.53,1230.57 3187.42,1027.83 3051.7,1026.1C2948.86,1024.78 2704.84,1027.49 2704.84,1027.49L2707.62,1214.8C2707.62,1214.8 2931.52,1215.57 3021.36,1214.8C3122.45,1213.92 3246.65,1341.21 3246.65,1492.89C3246.65,1675.25 3126.88,1777.15 3021.36,1776.58C2899.03,1775.92 2518.45,1782.09 2518.45,1782.09L2518.45,1591.53C2518.45,1591.53 2919.81,1590.73 3004.47,1590.53C3083.6,1590.34 3088.85,1402.56 2994.69,1402.7L2340.85,1403.98L2332.51,2337.96L2138.95,2337.96Z" style="fill:rgb(125,201,3);"/>
        </g>
    </g>
</svg>
